<svg width="147" height="146" viewBox="0 0 147 146" fill="none" xmlns="http://www.w3.org/2000/svg">
<path fill-rule="evenodd" clip-rule="evenodd" d="M36.3264 98.2056C36.1482 99.63 34.6155 105.861 33.9028 108.07C32.0473 113.813 29.5908 120.869 27.445 126.617C27.0141 127.777 26.5211 129.181 26.3472 129.738C26.1774 130.296 25.759 131.51 25.4233 132.439C24.5492 134.846 24.2014 136.052 23.9734 137.468C23.7951 138.578 23.8116 138.851 24.1268 140.094C24.375 141.08 24.7026 141.815 25.2451 142.637C26.2022 144.07 26.9519 144.735 28.3685 145.403C29.3089 145.849 29.7108 145.936 31.0696 145.986C32.8464 146.052 33.5302 145.907 35.1375 145.127C36.1108 144.652 37.0058 143.822 43.0786 137.736C48.9899 131.816 53.1573 127.802 54.9843 126.275C55.2533 126.048 55.8665 125.519 56.343 125.102C56.8193 124.685 57.5774 124.041 58.0247 123.669C58.4764 123.298 58.9281 122.918 59.0313 122.823C59.5701 122.344 61.6907 120.577 62.1921 120.189C62.511 119.941 63.3935 119.26 64.1516 118.669C67.942 115.734 71.9682 112.736 73.0828 112.026C73.3603 111.849 74.3504 111.159 75.2784 110.494C76.2103 109.826 77.2045 109.144 77.4904 108.971C77.7763 108.801 79.0732 107.947 80.3653 107.071C84.0851 104.557 84.6361 104.193 84.7312 104.193C84.7807 104.193 85.4022 103.793 86.1146 103.306C87.5107 102.352 89.3874 101.159 89.4906 101.159C89.528 101.159 90.3355 100.638 91.2927 100.007C94.3745 97.9629 95.891 96.9804 97.7714 95.8074C100.182 94.313 101.864 93.2436 104.101 91.7981C105.108 91.1501 106.181 90.4646 106.487 90.2789C106.794 90.0932 107.204 89.829 107.403 89.6886C107.647 89.5152 107.9 89.35 108.153 89.1847C109.569 88.2638 118.886 82.0501 119.635 81.5214C120.141 81.1664 121.131 80.4933 121.831 80.0227C122.535 79.556 123.417 78.9285 123.786 78.6311C124.159 78.3338 124.892 77.7971 125.414 77.4377C126.843 76.4632 129.669 74.4609 129.959 74.2212C130.269 73.9571 131.367 73.1891 133.675 71.6118C140.385 67.033 144.267 63.9281 145.385 62.2393C146.607 60.3979 146.877 59.6708 146.98 57.9534C147.175 54.704 145.924 52.4989 143.107 51.1242C140.862 50.03 139.329 49.9019 125.224 49.6334C117.705 49.4933 110.46 49.2288 108.662 49.0347C107.125 48.8694 103.476 48.1883 102.887 47.957C102.365 47.7505 102.386 48.2047 102.978 49.679C103.306 50.4926 103.873 52.0035 104.246 53.0356C105.688 57.0614 107.676 59.5883 110.468 60.9466C112.063 61.727 113.484 61.9791 117.461 62.198C119.267 62.2972 121.085 62.4501 121.504 62.5366C121.922 62.6231 122.316 62.6975 122.374 62.7015C122.436 62.7059 122.527 62.8256 122.581 62.9657C122.751 63.4035 120.618 65.2985 117.448 67.5201C115.191 69.1054 113.828 70.0266 108.65 73.4697C104.039 76.5333 100.547 78.7961 98.4427 80.076C98.215 80.2164 97.3987 80.7323 96.6242 81.2281C95.8536 81.7196 94.8261 82.3635 94.3375 82.6605C93.5464 83.1396 92.0094 84.1141 85.5223 88.2555C84.4659 88.9283 83.4095 89.6014 82.349 90.2661C80.9038 91.1746 77.3909 93.437 76.7155 93.8997L74.9424 95.1092C74.1967 95.617 73.2648 96.2157 72.8709 96.4346C72.4734 96.6535 72.1505 96.8845 72.1505 96.9425C72.1505 97.0045 71.9807 97.1326 71.7695 97.2274C71.4543 97.3719 67.196 100.258 66.6576 100.691C66.5664 100.766 65.9119 101.224 65.2077 101.711C59.3915 105.7 53.0618 110.683 45.4769 117.236C44.9546 117.686 44.5033 117.983 44.4743 117.892C44.3997 117.669 44.6193 116.81 45.4268 114.139C45.8079 112.888 46.2804 111.22 46.4752 110.431C46.6659 109.643 46.9265 108.767 47.0509 108.491C47.1754 108.214 47.548 106.884 47.8756 105.538C49.6857 98.1312 49.7729 93.9647 48.2399 88.172C47.7926 86.4875 46.4089 83.5147 45.1123 81.4624C43.3436 78.6509 39.3709 74.7365 35.1123 71.5984C34.404 71.0782 33.7205 70.5498 33.5921 70.4214C33.4636 70.2977 32.9789 69.9384 32.5151 69.6246C32.051 69.3108 31.4049 68.8526 31.0777 68.6089C30.7545 68.3612 29.6113 67.5063 28.5428 66.7095C26.4299 65.1239 26.285 65.0042 25.1704 63.8359C24.6736 63.3157 24.4745 62.9895 24.5862 62.8782C24.8969 62.5684 29.0974 62.2134 34.4578 62.0398C42.8048 61.7676 47.3079 61.2306 50.7711 60.0911C52.4322 59.5461 55.5762 58.0969 56.6037 57.4073C59.669 55.3427 62.362 52.6216 64.0396 49.8926C65.8497 46.953 67.9252 42.4854 68.9318 39.3514C69.2302 38.4265 69.9344 36.337 70.4934 34.7149C71.0527 33.092 71.6948 31.2342 71.9184 30.5859C72.1421 29.9335 72.395 29.2524 72.4862 29.0666C72.5729 28.8809 72.95 28.0633 73.3189 27.2541C73.6875 26.4405 74.0646 25.7801 74.1597 25.7801C74.6071 25.7801 76.1565 29.1867 77.5691 33.2824C78.0413 34.6324 78.5179 35.9827 78.9985 37.329C79.4294 38.5348 80.2658 40.8877 80.854 42.5561C81.4379 44.2282 82.0137 45.8219 82.1257 46.0985C82.2417 46.375 82.6225 47.3991 82.9706 48.3736C83.3227 49.3481 83.8527 50.7893 84.1511 51.5777C84.4497 52.3662 85.0296 53.9602 85.4436 55.1201C85.8579 56.2806 86.3093 57.4777 86.4543 57.7834C86.5952 58.0928 86.8518 58.7371 87.022 59.2159C87.1918 59.6992 87.8796 61.4994 88.5462 63.2128C89.2834 65.1242 90.021 67.032 90.7502 68.9478C91.7484 71.5736 92.4318 73.2749 93.0658 74.6788C93.2521 75.1002 93.5088 75.7234 93.6292 76.0703C93.7533 76.4213 93.9231 76.7063 94.0018 76.7063C94.213 76.7063 95.779 75.7733 97.842 74.4147C101.81 71.8053 103.281 69.3524 103.029 65.7605C102.904 64.0183 102.44 62.5316 100.547 57.8166C99.785 55.9172 99.1221 54.1707 99.0723 53.9394C99.0225 53.7081 98.9233 53.4443 98.8571 53.3491C98.7905 53.2579 98.5756 52.75 98.3805 52.2257C98.1857 51.7014 97.8753 50.9418 97.6846 50.5412C97.4983 50.1366 97.0096 48.8607 96.5952 47.7005C96.1809 46.5403 94.7061 42.593 93.3144 38.9307C91.9183 35.2683 90.5844 31.664 90.3483 30.9208C90.1081 30.1816 89.4079 28.1666 88.7948 26.4532C87.4568 22.7208 86.3924 19.558 84.3169 13.1293C82.2912 6.87 81.5869 5.06984 80.5059 3.43461C79.5652 2.0099 78.8115 1.39476 76.9143 0.511104C75.6551 -0.071183 73.5422 -0.17041 72.1505 0.288179C71.641 0.453445 70.9158 0.783643 70.5472 1.01897C69.0684 1.95626 67.4651 3.95052 66.7814 5.70945C66.0233 7.6541 64.8841 10.9611 64.0473 13.6369C60.7042 24.3185 57.9867 32.5185 56.6114 36.0652C56.2344 37.0397 55.924 37.8982 55.924 37.9726C55.924 38.2575 54.0062 41.9159 53.3016 42.9768C52.1003 44.7897 50.2114 46.3998 48.3018 47.2419C44.6603 48.8483 40.8329 49.2818 28.6289 49.4635C20.5301 49.5875 14.5817 49.7156 12.8251 49.8104C12.034 49.8476 10.4015 49.9261 9.19207 49.9841C6.50379 50.1037 5.65456 50.2771 4.06776 51.0286C1.29641 52.3417 -0.248689 55.0503 0.0328185 58.0972C0.156924 59.3851 0.691351 60.6406 1.73532 62.0981C2.3814 62.9982 2.9572 63.5765 4.87932 65.2486C5.11139 65.4507 6.4826 66.4953 7.92411 67.569C11.3957 70.1576 12.3068 70.8184 16.5614 73.8367C21.6941 77.4743 27.974 82.1483 30.066 83.8821C31.4456 85.0262 33.5124 87.111 34.0592 87.9162C34.7511 88.9276 35.6417 90.7405 35.9898 91.8471C36.4536 93.313 36.5985 96.0501 36.3251 98.2056H36.3264Z" fill="#CDFE67"/>
<path fill-rule="evenodd" clip-rule="evenodd" d="M109.059 114.739C110.244 117.551 111.961 121.813 111.961 121.941C111.961 122.248 111.143 121.809 109.624 120.686C106.735 118.549 102.41 115.592 100.76 114.627C100.112 114.25 99.3151 113.778 98.9931 113.583C96.2281 111.922 91.4529 110.717 88.3822 110.908C84.4946 111.148 81.0608 112.581 76.5831 115.832C73.9129 117.77 73.5208 118.069 73.5001 118.193C73.492 118.263 74.3337 118.35 75.3778 118.388C80.0043 118.549 84.5687 119.899 88.6339 122.31C90.4416 123.378 98.6132 128.816 101.919 131.144C102.864 131.81 110.268 137.327 110.66 137.659C110.772 137.754 111.205 138.094 111.622 138.417C112.038 138.739 112.418 139.042 112.464 139.092C113.021 139.68 118.795 143.887 119.958 144.55C124.515 147.159 128.79 146.202 131.163 142.04C131.869 140.802 132.224 139.116 132.084 137.658C131.885 135.617 131.625 134.801 130.144 131.566C129.847 130.916 129.191 129.354 128.683 128.1C128.18 126.844 127.622 125.511 127.445 125.138C126.863 123.92 124.911 119.426 124.172 117.613C121.737 111.632 121.172 110.261 120.553 108.816C120.173 107.934 119.789 107.055 119.703 106.873C119.24 105.883 117.722 101.448 116.772 98.3287C116.133 96.2331 115.831 94.2616 115.831 92.199C115.831 91.1966 115.774 90.3809 115.703 90.3809C115.637 90.3809 114.973 90.7783 114.23 91.2672C113.491 91.7558 112.315 92.497 111.622 92.9156C108.402 94.8498 106.974 96.1545 106.021 98.0429C105.295 99.4885 105.051 100.566 105.055 102.371C105.059 104.732 105.757 106.881 109.059 114.738L109.059 114.739Z" fill="#CDFE67"/>
</svg>
