<svg width="720" height="166" viewBox="0 0 720 166" fill="none" xmlns="http://www.w3.org/2000/svg">
<path fill-rule="evenodd" clip-rule="evenodd" d="M36.3264 108.206C36.1482 109.63 34.6155 115.861 33.9028 118.07C32.0473 123.813 29.5908 130.869 27.445 136.617C27.0141 137.777 26.5211 139.181 26.3472 139.738C26.1774 140.296 25.759 141.51 25.4233 142.439C24.5492 144.846 24.2014 146.052 23.9734 147.468C23.7951 148.578 23.8116 148.851 24.1268 150.094C24.375 151.08 24.7026 151.815 25.2451 152.637C26.2022 154.07 26.9519 154.735 28.3685 155.403C29.3089 155.849 29.7108 155.936 31.0696 155.986C32.8464 156.052 33.5302 155.907 35.1375 155.127C36.1108 154.652 37.0058 153.822 43.0786 147.736C48.9899 141.816 53.1573 137.802 54.9843 136.275C55.2533 136.048 55.8665 135.519 56.343 135.102C56.8193 134.685 57.5774 134.041 58.0247 133.669C58.4764 133.298 58.9281 132.918 59.0313 132.823C59.5701 132.344 61.6907 130.577 62.1921 130.189C62.511 129.941 63.3935 129.26 64.1516 128.669C67.942 125.734 71.9682 122.736 73.0828 122.026C73.3603 121.849 74.3504 121.159 75.2784 120.494C76.2103 119.826 77.2045 119.144 77.4904 118.971C77.7763 118.801 79.0732 117.947 80.3653 117.071C84.0851 114.557 84.6361 114.193 84.7312 114.193C84.7807 114.193 85.4022 113.793 86.1146 113.306C87.5107 112.352 89.3874 111.159 89.4906 111.159C89.528 111.159 90.3355 110.638 91.2927 110.007C94.3745 107.963 95.891 106.98 97.7714 105.807C100.182 104.313 101.864 103.244 104.101 101.798C105.108 101.15 106.181 100.465 106.487 100.279C106.794 100.093 107.204 99.829 107.403 99.6886C107.647 99.5152 107.9 99.35 108.153 99.1847C109.569 98.2638 118.886 92.0501 119.635 91.5214C120.141 91.1664 121.131 90.4933 121.831 90.0227C122.535 89.556 123.417 88.9285 123.786 88.6311C124.159 88.3338 124.892 87.7971 125.414 87.4377C126.843 86.4632 129.669 84.4609 129.959 84.2212C130.269 83.9571 131.367 83.1891 133.675 81.6118C140.385 77.033 144.267 73.9281 145.385 72.2393C146.607 70.3979 146.877 69.6708 146.98 67.9534C147.175 64.704 145.924 62.4989 143.107 61.1242C140.862 60.03 139.329 59.9019 125.224 59.6334C117.705 59.4933 110.46 59.2288 108.662 59.0347C107.125 58.8694 103.476 58.1883 102.887 57.957C102.365 57.7505 102.386 58.2047 102.978 59.679C103.306 60.4926 103.873 62.0035 104.246 63.0356C105.688 67.0614 107.676 69.5883 110.468 70.9466C112.063 71.727 113.484 71.9791 117.461 72.198C119.267 72.2972 121.085 72.4501 121.504 72.5366C121.922 72.6231 122.316 72.6975 122.374 72.7015C122.436 72.7059 122.527 72.8256 122.581 72.9657C122.751 73.4035 120.618 75.2985 117.448 77.5201C115.191 79.1054 113.828 80.0266 108.65 83.4697C104.039 86.5333 100.547 88.7961 98.4427 90.076C98.215 90.2164 97.3987 90.7323 96.6242 91.2281C95.8536 91.7196 94.8261 92.3635 94.3375 92.6605C93.5464 93.1396 92.0094 94.1141 85.5223 98.2555C84.4659 98.9283 83.4095 99.6014 82.349 100.266C80.9038 101.175 77.3909 103.437 76.7155 103.9L74.9424 105.109C74.1967 105.617 73.2648 106.216 72.8709 106.435C72.4734 106.654 72.1505 106.885 72.1505 106.943C72.1505 107.005 71.9807 107.133 71.7695 107.227C71.4543 107.372 67.196 110.258 66.6576 110.691C66.5664 110.766 65.9119 111.224 65.2077 111.711C59.3915 115.7 53.0618 120.683 45.4769 127.236C44.9546 127.686 44.5033 127.983 44.4743 127.892C44.3997 127.669 44.6193 126.81 45.4268 124.139C45.8079 122.888 46.2804 121.22 46.4752 120.431C46.6659 119.643 46.9265 118.767 47.0509 118.491C47.1754 118.214 47.548 116.884 47.8756 115.538C49.6857 108.131 49.7729 103.965 48.2399 98.172C47.7926 96.4875 46.4089 93.5147 45.1123 91.4624C43.3436 88.6509 39.3709 84.7365 35.1123 81.5984C34.404 81.0782 33.7205 80.5498 33.5921 80.4214C33.4636 80.2977 32.9789 79.9384 32.5151 79.6246C32.051 79.3108 31.4049 78.8526 31.0777 78.6089C30.7545 78.3612 29.6113 77.5063 28.5428 76.7095C26.4299 75.1239 26.285 75.0042 25.1704 73.8359C24.6736 73.3157 24.4745 72.9895 24.5862 72.8782C24.8969 72.5684 29.0974 72.2134 34.4578 72.0398C42.8048 71.7676 47.3079 71.2306 50.7711 70.0911C52.4322 69.5461 55.5762 68.0969 56.6037 67.4073C59.669 65.3427 62.362 62.6216 64.0396 59.8926C65.8497 56.953 67.9252 52.4854 68.9318 49.3514C69.2302 48.4265 69.9344 46.337 70.4934 44.7149C71.0527 43.092 71.6948 41.2342 71.9184 40.5859C72.1421 39.9335 72.395 39.2524 72.4862 39.0666C72.5729 38.8809 72.95 38.0633 73.3189 37.2541C73.6875 36.4405 74.0646 35.7801 74.1597 35.7801C74.6071 35.7801 76.1565 39.1867 77.5691 43.2824C78.0413 44.6324 78.5179 45.9827 78.9985 47.329C79.4294 48.5348 80.2658 50.8877 80.854 52.5561C81.4379 54.2282 82.0137 55.8219 82.1257 56.0985C82.2417 56.375 82.6225 57.3991 82.9706 58.3736C83.3227 59.3481 83.8527 60.7893 84.1511 61.5777C84.4497 62.3662 85.0296 63.9602 85.4436 65.1201C85.8579 66.2806 86.3093 67.4777 86.4543 67.7834C86.5952 68.0928 86.8518 68.7371 87.022 69.2159C87.1918 69.6992 87.8796 71.4994 88.5462 73.2128C89.2834 75.1242 90.021 77.032 90.7502 78.9478C91.7484 81.5736 92.4318 83.2749 93.0658 84.6788C93.2521 85.1002 93.5088 85.7234 93.6292 86.0703C93.7533 86.4213 93.9231 86.7063 94.0018 86.7063C94.213 86.7063 95.779 85.7733 97.842 84.4147C101.81 81.8053 103.281 79.3524 103.029 75.7605C102.904 74.0183 102.44 72.5316 100.547 67.8166C99.785 65.9172 99.1221 64.1707 99.0723 63.9394C99.0225 63.7081 98.9233 63.4443 98.8571 63.3491C98.7905 63.2579 98.5756 62.75 98.3805 62.2257C98.1857 61.7014 97.8753 60.9418 97.6846 60.5412C97.4983 60.1366 97.0096 58.8607 96.5952 57.7005C96.1809 56.5403 94.7061 52.593 93.3144 48.9307C91.9183 45.2683 90.5844 41.664 90.3483 40.9208C90.1081 40.1816 89.4079 38.1666 88.7948 36.4532C87.4568 32.7208 86.3924 29.558 84.3169 23.1293C82.2912 16.87 81.5869 15.0698 80.5059 13.4346C79.5652 12.0099 78.8115 11.3948 76.9143 10.5111C75.6551 9.92882 73.5422 9.82959 72.1505 10.2882C71.641 10.4534 70.9158 10.7836 70.5472 11.019C69.0684 11.9563 67.4651 13.9505 66.7814 15.7095C66.0233 17.6541 64.8841 20.9611 64.0473 23.6369C60.7042 34.3185 57.9867 42.5185 56.6114 46.0652C56.2344 47.0397 55.924 47.8982 55.924 47.9726C55.924 48.2575 54.0062 51.9159 53.3016 52.9768C52.1003 54.7897 50.2114 56.3998 48.3018 57.2419C44.6603 58.8483 40.8329 59.2818 28.6289 59.4635C20.5301 59.5875 14.5817 59.7156 12.8251 59.8104C12.034 59.8476 10.4015 59.9261 9.19207 59.9841C6.50379 60.1037 5.65456 60.2771 4.06776 61.0286C1.29641 62.3417 -0.248689 65.0503 0.0328185 68.0972C0.156924 69.3851 0.691351 70.6406 1.73532 72.0981C2.3814 72.9982 2.9572 73.5765 4.87932 75.2486C5.11139 75.4507 6.4826 76.4953 7.92411 77.569C11.3957 80.1576 12.3068 80.8184 16.5614 83.8367C21.6941 87.4743 27.974 92.1483 30.066 93.8821C31.4456 95.0262 33.5124 97.111 34.0592 97.9162C34.7511 98.9276 35.6417 100.74 35.9898 101.847C36.4536 103.313 36.5985 106.05 36.3251 108.206H36.3264Z" fill="#CDFE67"/>
<path fill-rule="evenodd" clip-rule="evenodd" d="M109.059 124.739C110.244 127.551 111.961 131.813 111.961 131.941C111.961 132.248 111.143 131.809 109.624 130.686C106.735 128.549 102.41 125.592 100.76 124.627C100.112 124.25 99.3151 123.778 98.9931 123.583C96.2281 121.922 91.4529 120.717 88.3822 120.908C84.4946 121.148 81.0608 122.581 76.5831 125.832C73.9129 127.77 73.5208 128.069 73.5001 128.193C73.492 128.263 74.3337 128.35 75.3778 128.388C80.0043 128.549 84.5687 129.899 88.6339 132.31C90.4416 133.378 98.6132 138.816 101.919 141.144C102.864 141.81 110.268 147.327 110.66 147.659C110.772 147.754 111.205 148.094 111.622 148.417C112.038 148.739 112.418 149.042 112.464 149.092C113.021 149.68 118.795 153.887 119.958 154.55C124.515 157.159 128.79 156.202 131.163 152.04C131.869 150.802 132.224 149.116 132.084 147.658C131.885 145.617 131.625 144.801 130.144 141.566C129.847 140.916 129.191 139.354 128.683 138.1C128.18 136.844 127.622 135.511 127.445 135.138C126.863 133.92 124.911 129.426 124.172 127.613C121.737 121.632 121.172 120.261 120.553 118.816C120.173 117.934 119.789 117.055 119.703 116.873C119.24 115.883 117.722 111.448 116.772 108.329C116.133 106.233 115.831 104.262 115.831 102.199C115.831 101.197 115.774 100.381 115.703 100.381C115.637 100.381 114.973 100.778 114.23 101.267C113.491 101.756 112.315 102.497 111.622 102.916C108.402 104.85 106.974 106.154 106.021 108.043C105.295 109.488 105.051 110.566 105.055 112.371C105.059 114.732 105.757 116.881 109.059 124.738L109.059 124.739Z" fill="#CDFE67"/>
<path d="M205.128 134C202.739 134 200.691 133.275 198.984 131.824C197.363 130.288 196.552 128.411 196.552 126.192V52.208C196.552 49.9893 197.363 48.1547 198.984 46.704C200.605 45.168 202.653 44.4 205.128 44.4H233.544C241.139 44.4 247.837 45.8507 253.64 48.752C259.528 51.6533 264.051 55.7493 267.208 61.04C270.451 66.2453 272.072 72.2187 272.072 78.96V99.184C272.072 105.925 270.451 111.941 267.208 117.232C263.965 122.523 259.4 126.661 253.512 129.648C247.709 132.549 241.053 134 233.544 134H205.128ZM232.264 119.28C239.688 119.28 245.32 117.616 249.16 114.288C253 110.875 254.92 105.883 254.92 99.312V78.704C254.92 72.304 253 67.44 249.16 64.112C245.32 60.784 239.688 59.12 232.264 59.12H213.704V119.28H232.264ZM308.991 135.152C303.7 135.152 298.879 134.128 294.527 132.08C290.175 129.947 286.719 127.088 284.159 123.504C281.599 119.835 280.319 115.739 280.319 111.216V94.192C280.319 89.4133 281.642 85.104 284.287 81.264C286.932 77.424 290.431 74.3947 294.783 72.176C299.22 69.9573 303.999 68.848 309.119 68.848C314.154 68.848 318.762 69.9147 322.943 72.048C327.21 74.096 330.58 76.9973 333.055 80.752C335.53 84.4213 336.767 88.6453 336.767 93.424V100.592C336.767 102.469 336.042 104.048 334.591 105.328C333.226 106.608 331.476 107.248 329.343 107.248H295.807V110.064C295.807 113.733 296.916 116.72 299.135 119.024C301.354 121.328 304.682 122.48 309.119 122.48C313.386 122.48 316.543 121.541 318.591 119.664C320.724 117.787 321.791 115.355 321.791 112.368C323.327 112.197 324.394 112.112 324.991 112.112C328.148 112.112 330.623 112.837 332.415 114.288C334.207 115.653 335.103 117.616 335.103 120.176C335.103 122.651 333.951 125.04 331.647 127.344C329.343 129.648 326.186 131.525 322.175 132.976C318.164 134.427 313.77 135.152 308.991 135.152ZM322.303 95.856V93.424C322.303 89.84 321.066 86.9387 318.591 84.72C316.116 82.5013 312.916 81.392 308.991 81.392C305.066 81.392 301.866 82.5013 299.391 84.72C297.002 86.8533 295.807 89.7547 295.807 93.424V95.856H322.303ZM366.633 135.152C362.708 135.152 359.422 134.384 356.777 132.848C354.132 131.227 352.382 128.923 351.529 125.936L336.809 70.256C337.492 69.8293 338.516 69.488 339.881 69.232C341.246 68.976 342.569 68.848 343.849 68.848C346.409 68.848 348.542 69.4453 350.249 70.64C352.041 71.7493 353.15 73.2427 353.577 75.12L361.129 109.552L359.465 116.592L360.233 116.848L371.753 74.096C372.265 72.56 373.161 71.3227 374.441 70.384C375.721 69.36 377.385 68.848 379.433 68.848C381.566 68.848 383.316 69.36 384.681 70.384C386.046 71.3227 386.942 72.56 387.369 74.096L396.585 110.448L394.665 117.872L395.433 118.128L405.289 75.12C405.716 73.2427 406.825 71.7493 408.617 70.64C410.409 69.4453 412.585 68.848 415.145 68.848C416.51 68.848 417.833 68.976 419.113 69.232C420.478 69.488 421.502 69.8293 422.185 70.256L407.465 125.936C406.697 128.837 404.82 131.099 401.833 132.72C398.846 134.341 395.348 135.152 391.337 135.152L378.281 83.696L377.641 83.952L379.049 89.456L366.633 135.152ZM439.617 134C437.142 134 435.009 133.104 433.217 131.312C431.51 129.52 430.657 127.387 430.657 124.912V55.92C430.657 51.6533 432.065 48.496 434.881 46.448C437.697 44.3147 442.006 43.248 447.809 43.248V119.152H482.369C486.38 119.152 489.409 120.432 491.457 122.992C493.505 125.467 494.529 129.136 494.529 134H439.617ZM522.819 135.152C517.272 135.152 512.238 134.171 507.715 132.208C503.278 130.16 499.779 127.344 497.219 123.76C494.659 120.176 493.379 116.123 493.379 111.6V93.552C493.379 88.944 494.616 84.7627 497.091 81.008C499.651 77.2533 503.15 74.3093 507.587 72.176C512.024 69.9573 517.102 68.848 522.819 68.848C528.536 68.848 533.614 69.9573 538.051 72.176C542.574 74.3093 546.072 77.2533 548.547 81.008C551.107 84.7627 552.387 88.944 552.387 93.552V111.6C552.387 116.123 551.064 120.176 548.419 123.76C545.859 127.344 542.318 130.16 537.795 132.208C533.358 134.171 528.366 135.152 522.819 135.152ZM522.819 121.456C527.086 121.456 530.414 120.475 532.803 118.512C535.278 116.549 536.515 113.904 536.515 110.576V94.32C536.515 90.8213 535.278 88.0053 532.803 85.872C530.414 83.6533 527.086 82.544 522.819 82.544C518.638 82.544 515.31 83.6533 512.835 85.872C510.36 88.0053 509.123 90.8213 509.123 94.32V110.576C509.123 113.904 510.36 116.549 512.835 118.512C515.31 120.475 518.638 121.456 522.819 121.456ZM562.842 160.752C559.514 160.752 556.869 159.6 554.906 157.296C553.029 154.992 552.09 151.664 552.09 147.312C554.65 147.739 556.783 147.952 558.49 147.952C561.733 147.952 564.293 147.099 566.17 145.392C568.133 143.685 570.266 140.272 572.57 135.152L574.618 130.416L549.914 70.128C550.511 69.7867 551.535 69.488 552.986 69.232C554.522 68.976 555.759 68.848 556.698 68.848C559.173 68.848 561.434 69.4027 563.482 70.512C565.53 71.536 566.938 72.9867 567.706 74.864L581.402 110.832L579.226 116.848L580.378 117.232L596.89 74.864C597.658 72.9013 599.023 71.408 600.986 70.384C603.034 69.36 605.295 68.848 607.77 68.848C608.709 68.848 609.903 68.976 611.354 69.232C612.89 69.488 613.999 69.7867 614.682 70.128L586.01 139.76C583.023 146.928 579.738 152.219 576.154 155.632C572.655 159.045 568.218 160.752 562.842 160.752ZM636.01 135.152C631.658 135.152 627.647 134.299 623.978 132.592C620.394 130.885 617.493 128.453 615.274 125.296C613.141 122.053 612.074 118.213 612.074 113.776C612.074 109.339 613.226 105.499 615.53 102.256C617.834 98.928 620.949 96.4107 624.874 94.704C628.885 92.912 633.279 92.016 638.058 92.016C641.983 92.016 645.482 92.656 648.554 93.936C651.711 95.1307 654.613 96.9653 657.258 99.44L657.898 98.8C657.13 98.032 655.807 96.88 653.93 95.344V92.784C653.93 89.2853 652.693 86.512 650.218 84.464C647.743 82.416 644.287 81.392 639.85 81.392C631.914 81.392 626.069 84.2933 622.314 90.096C620.437 89.4987 618.858 88.56 617.578 87.28C616.298 85.9147 615.658 84.464 615.658 82.928C615.658 80.368 616.81 78.0213 619.114 75.888C621.418 73.7547 624.533 72.048 628.458 70.768C632.383 69.488 636.65 68.848 641.258 68.848C650.303 68.848 657.301 70.9813 662.25 75.248C667.199 79.4293 669.674 85.1467 669.674 92.4V124.4C669.674 128.155 668.479 130.885 666.09 132.592C663.701 134.299 659.946 135.152 654.826 135.152V129.904C656.277 128.453 657.258 127.387 657.77 126.704L657.258 126.064C654.442 129.051 651.413 131.312 648.17 132.848C645.013 134.384 640.959 135.152 636.01 135.152ZM640.106 123.504C644.543 123.504 647.999 122.651 650.474 120.944C652.949 119.237 654.186 116.805 654.186 113.648C654.186 110.576 652.906 108.144 650.346 106.352C647.871 104.56 644.501 103.664 640.234 103.664C636.309 103.664 633.194 104.56 630.89 106.352C628.671 108.059 627.562 110.491 627.562 113.648C627.562 116.891 628.671 119.365 630.89 121.072C633.109 122.693 636.181 123.504 640.106 123.504ZM701.164 135.152C694.081 135.152 688.705 133.147 685.036 129.136C681.452 125.04 679.66 119.877 679.66 113.648V52.976C679.66 49.4773 680.94 47.0027 683.5 45.552C686.145 44.016 690.199 43.248 695.66 43.248V113.008C695.66 115.909 696.3 118.043 697.58 119.408C698.86 120.688 700.908 121.328 703.724 121.328C706.881 121.328 710.039 120.517 713.196 118.896C714.049 119.664 714.689 120.645 715.116 121.84C715.628 122.949 715.884 124.101 715.884 125.296C715.884 127.856 714.604 130.16 712.044 132.208C709.484 134.171 705.857 135.152 701.164 135.152Z" fill="white"/>
</svg>
